<svg id="Flat" enable-background="new 0 0 512 512" height="512" viewBox="0 0 512 512" width="512" xmlns="http://www.w3.org/2000/svg"><g><path d="m56 200h432v256h-432z" fill="#c4d4de"/><path d="m56 200v256h-16c-4.4199219 0-8.4199219 1.7900391-11.3200684 4.6799316-2.8898925 2.9000245-4.6799316 6.9000245-4.6799316 11.3200684v-256c0-8.8400879 7.1599121-16 16-16z" fill="#e22526"/><path d="m56 488h-16.0000153c-8.8365478 0-15.9999847-7.1634216-15.9999847-15.9999695v-.000061c0-8.8365479 7.1634369-15.9999695 15.9999847-15.9999695h16.0000153z" fill="#be202e"/><path d="m56 456h432v32h-432z" fill="#96bacc"/><path d="m72 240h-16c-4.4179688 0-8-3.581543-8-8s3.5820313-8 8-8h16c4.4179688 0 8 3.581543 8 8s-3.5820312 8-8 8z" fill="#ffec00"/><path d="m72 288h-16c-4.4179688 0-8-3.581543-8-8s3.5820313-8 8-8h16c4.4179688 0 8 3.581543 8 8s-3.5820312 8-8 8z" fill="#ffec00"/><path d="m72 336h-16c-4.4179688 0-8-3.581543-8-8s3.5820313-8 8-8h16c4.4179688 0 8 3.581543 8 8s-3.5820312 8-8 8z" fill="#ffec00"/><path d="m72 384h-16c-4.4179688 0-8-3.581543-8-8s3.5820313-8 8-8h16c4.4179688 0 8 3.581543 8 8s-3.5820312 8-8 8z" fill="#ffec00"/><path d="m72 432h-16c-4.4179688 0-8-3.581543-8-8s3.5820313-8 8-8h16c4.4179688 0 8 3.581543 8 8s-3.5820312 8-8 8z" fill="#ffec00"/><path d="m112 24h288v368h-288z" fill="#efeeef"/><path d="m144 56h224v48h-224z" fill="#aedef8"/><path d="m336 264h32v96h-32z" fill="#ffec00"/><g fill="#35495e"><path d="m272 328h32v32h-32z"/><path d="m208 328h32v32h-32z"/><path d="m144 328h32v32h-32z"/><path d="m272 264h32v32h-32z"/><path d="m208 264h32v32h-32z"/><path d="m144 264h32v32h-32z"/><path d="m272 200h32v32h-32z"/><path d="m208 200h32v32h-32z"/><path d="m144 200h32v32h-32z"/></g><path d="m272 136h32v32h-32z" fill="#fcc200"/><path d="m336 200h32v32h-32z" fill="#b71e71"/><path d="m336 136h32v32h-32z" fill="#00a8e7"/><path d="m208 136h32v32h-32z" fill="#acdd12"/><path d="m144 136h32v32h-32z" fill="#e22526"/><path d="m400 40v352h-272v16h288v-16-352z" fill="#96bacc"/></g></svg>