<?xml version="1.0" encoding="iso-8859-1"?>
<!-- Generator: Adobe Illustrator 19.0.0, SVG Export Plug-In . SVG Version: 6.00 Build 0)  -->
<svg version="1.1" id="Capa_1" xmlns="http://www.w3.org/2000/svg" xmlns:xlink="http://www.w3.org/1999/xlink" x="0px" y="0px"
	 viewBox="0 0 480 480" style="enable-background:new 0 0 480 480;" xml:space="preserve">
<path style="fill:#FCEE21;" d="M72,280L72,280c-35.346,0-64-28.654-64-64h128C136,251.346,107.346,280,72,280z"/>
<path style="fill:#A5D3D6;" d="M128.625,219.105L72,84.617L15.375,219.105l-14.75-6.211l64-152C65.875,57.93,68.781,56,72,56
	s6.125,1.93,7.375,4.895l64,152L128.625,219.105z"/>
<path style="fill:#BADDE2;" d="M128.625,219.105L72,84.617L15.375,219.105l-14.75-6.211l64-152C65.875,57.93,68.781,56,72,56
	s6.125,1.93,7.375,4.895l64,152L128.625,219.105z"/>
<rect x="64" y="64" style="fill:#A5D3D6;" width="16" height="152"/>
<path id="SVGCleanerId_0" style="fill:#BADDE2;" d="M464.625,219.105L408,84.617l-56.625,134.488l-14.75-6.211l64-152
	C401.875,57.93,404.781,56,408,56s6.125,1.93,7.375,4.895l64,152L464.625,219.105z"/>
<path style="fill:#FCEE21;" d="M8,216c0,35.346,28.654,64,64,64v-64H8z"/>
<path style="fill:#E0CB07;" d="M72,216v64c35.346,0,64-28.654,64-64H72z"/>
<g>
	<path id="SVGCleanerId_0_1_" style="fill:#BADDE2;" d="M464.625,219.105L408,84.617l-56.625,134.488l-14.75-6.211l64-152
		C401.875,57.93,404.781,56,408,56s6.125,1.93,7.375,4.895l64,152L464.625,219.105z"/>
</g>
<rect x="400" y="64" style="fill:#A5D3D6;" width="16" height="152"/>
<path style="fill:#FCEE21;" d="M344,216c0,35.346,28.654,64,64,64v-64H344z"/>
<path style="fill:#E0CB07;" d="M408,216v64c35.346,0,64-28.654,64-64H408z"/>
<g>
	<path style="fill:#B7A209;" d="M168,104h-32c-2.121,0-4.156-0.844-5.656-2.344L100.688,72H32V56h72
		c2.121,0,4.156,0.844,5.656,2.344L139.313,88H168V104z"/>
	<path style="fill:#B7A209;" d="M344,104h-32V88h28.688l29.656-29.656c1.5-1.5,3.535-2.344,5.656-2.344h72v16h-68.688
		l-29.656,29.656C348.156,103.156,346.121,104,344,104z"/>
	<rect x="232" style="fill:#B7A209;" width="16" height="24"/>
</g>
<circle style="fill:#FCEE21;" cx="240" cy="96" r="72"/>
<rect y="368" style="fill:#B5D676;" width="208" height="112"/>
<rect x="272" y="368" style="fill:#76B82B;" width="208" height="112"/>
<path style="fill:#FCEE21;" d="M220.24,165.28L208,280h32V168C233.2,168,226.56,167.04,220.24,165.28z"/>
<path style="fill:#E0CB07;" d="M259.76,165.28C253.44,167.04,246.8,168,240,168v112h32L259.76,165.28z"/>
<rect x="208" y="368" style="fill:#ED7B15;" width="64" height="80"/>
<rect x="208" y="448" style="fill:#D35211;" width="64" height="32"/>
<g>
	<rect y="432" style="fill:#2D584C;" width="208" height="16"/>
	<rect y="464" style="fill:#2D584C;" width="208" height="16"/>
</g>
<g>
	<rect y="368" style="fill:#4C7464;" width="208" height="16"/>
	<rect y="400" style="fill:#4C7464;" width="208" height="16"/>
	<rect x="272" y="368" style="fill:#4C7464;" width="208" height="16"/>
	<rect x="272" y="400" style="fill:#4C7464;" width="208" height="16"/>
</g>
<g>
	<rect x="272" y="432" style="fill:#2D584C;" width="208" height="16"/>
	<rect x="272" y="464" style="fill:#2D584C;" width="208" height="16"/>
</g>
<g>
	<path style="fill:#E0CB07;" d="M240,176c-7.352,0-14.723-1.012-21.906-3.012c-21.648-6.188-39.758-21.285-49.742-41.438
		c-2.891-5.867-5.035-11.84-6.391-17.766C160.652,107.801,160,101.844,160,96c0-44.113,35.887-80,80-80s80,35.887,80,80
		c0,5.852-0.656,11.809-1.945,17.711c-1.367,5.992-3.516,11.969-6.398,17.82c-9.992,20.172-28.105,35.27-49.699,41.441
		C254.723,174.988,247.352,176,240,176z M240,32c-35.289,0-64,28.711-64,64c0,4.699,0.531,9.508,1.574,14.293
		c1.063,4.645,2.793,9.438,5.121,14.176c7.98,16.105,22.469,28.184,39.742,33.121c11.469,3.188,23.605,3.203,35.176-0.016
		c17.223-4.922,31.711-17,39.699-33.125c2.324-4.723,4.051-9.516,5.125-14.227C303.469,105.512,304,100.703,304,96
		C304,60.711,275.289,32,240,32z"/>
	<path style="fill:#E0CB07;" d="M264,80V64c0-4.418-3.582-8-8-8h-8v-8h-16v8h-8c-4.418,0-8,3.582-8,8v32c0,4.418,3.582,8,8,8h24v16
		h-16v-8h-16v16c0,4.418,3.582,8,8,8h8v8h16v-8h8c4.418,0,8-3.582,8-8V96c0-4.418-3.582-8-8-8h-24V72h16v8H264z"/>
</g>
<path style="fill:#A69605;" d="M304,312v-16c0-8.837-7.164-16-16-16h-48v32H304z"/>
<path style="fill:#E0CB07;" d="M240,280h-48c-8.836,0-16,7.163-16,16v16h64V280z"/>
<path style="fill:#B7A209;" d="M176,312H24c-8.836,0-16,7.163-16,16v16h232v-32H176z"/>
<path style="fill:#877807;" d="M472,328c0-8.837-7.164-16-16-16H304h-64v32h232V328z"/>
<g>
</g>
<g>
</g>
<g>
</g>
<g>
</g>
<g>
</g>
<g>
</g>
<g>
</g>
<g>
</g>
<g>
</g>
<g>
</g>
<g>
</g>
<g>
</g>
<g>
</g>
<g>
</g>
<g>
</g>
</svg>
