<?xml version="1.0" encoding="iso-8859-1"?>
<!-- Generator: Adobe Illustrator 19.0.0, SVG Export Plug-In . SVG Version: 6.00 Build 0)  -->
<svg version="1.1" id="Capa_1" xmlns="http://www.w3.org/2000/svg" xmlns:xlink="http://www.w3.org/1999/xlink" x="0px" y="0px"
	 viewBox="0 0 480 480" style="enable-background:new 0 0 480 480;" xml:space="preserve">
<path style="fill:#FFB398;" d="M128,300L128,300c0.039,17.231,14.038,31.169,31.27,31.13c0.243-0.001,0.487-0.004,0.73-0.01l0,0
	v-0.4c8.837,0,16,7.163,16,16l0,0c0,8.837-7.163,16-16,16h-1.36c-8.642,34.683-43.764,55.794-78.447,47.153
	c-23.228-5.788-41.365-23.924-47.153-47.153H32c-8.837,0-16-7.163-16-16l0,0c0-8.837,7.163-16,16-16v0.4l0,0
	c17.226,0.442,31.548-13.164,31.99-30.39c0.006-0.243,0.01-0.487,0.01-0.73l0,0"/>
<path style="fill:#884D00;" d="M160,300v31.44l0,0c-17.226,0.442-31.548-13.163-31.991-30.389C128,300.701,127.997,300.35,128,300
	l0,0H64l0,0c-0.039,17.231-14.038,31.169-31.27,31.13c-0.243-0.001-0.487-0.004-0.73-0.01V300c0,0,0-56,64-56S160,300,160,300z"/>
<g>
	<path style="fill:#FFB398;" d="M198.333,69.543c-0.319,0.98-0.579,1.987-0.99,2.921C197.755,71.528,198.013,70.524,198.333,69.543z
		"/>
	<path style="fill:#FFB398;" d="M199.24,66.645c-0.22,1.001-0.593,1.936-0.907,2.898C198.647,68.58,199.02,67.648,199.24,66.645z"/>
	<path style="fill:#FFB398;" d="M195.89,75.127c-0.488,0.868-0.923,1.771-1.49,2.584C194.968,76.896,195.401,75.997,195.89,75.127z"
		/>
	<path style="fill:#FFB398;" d="M199.642,63.47c-0.122,1.063-0.177,2.148-0.402,3.175C199.466,65.616,199.521,64.535,199.642,63.47z
		"/>
	<path style="fill:#FFB398;" d="M197.343,72.464c-0.41,0.933-0.957,1.782-1.453,2.664C196.387,74.244,196.933,73.398,197.343,72.464
		z"/>
	<path style="fill:#FFB398;" d="M264.69,66.421c2.936,14.582,15.929,25.414,31.31,25.019v-0.32c-0.243,0.006-0.487,0.009-0.73,0.01
		C280.242,91.164,267.685,80.562,264.69,66.421z"/>
	<path style="fill:#FFB398;" d="M264.009,61.051c0.037,1.435,0.307,2.8,0.53,4.178c-0.294-1.708-0.535-3.438-0.539-5.229
		C263.997,60.35,264,60.701,264.009,61.051z"/>
	<path style="fill:#FFB398;" d="M264.69,66.421c-0.078-0.388-0.087-0.798-0.151-1.191C264.606,65.622,264.608,66.034,264.69,66.421z
		"/>
	<path style="fill:#FFB398;" d="M199.99,60.73c0.006-0.243,0.01-0.487,0.01-0.73c-0.002,1.189-0.226,2.316-0.358,3.47
		C199.748,62.552,199.966,61.671,199.99,60.73z"/>
</g>
<path style="fill:#EBE5DD;" d="M264.539,65.229c0.063,0.394,0.073,0.803,0.151,1.191c2.995,14.141,15.552,24.743,30.58,24.709
	c0.244,0,0.487-0.004,0.73-0.01v-0.4V60h-32C264.004,61.792,264.245,63.521,264.539,65.229z"/>
<g>
	<path style="fill:#FFB398;" d="M194.4,77.712c-0.576,0.827-1.271,1.554-1.923,2.32C193.13,79.265,193.824,78.541,194.4,77.712z"/>
	<path style="fill:#FFB398;" d="M168.73,91.13c0.939,0.002,1.825-0.191,2.744-0.271c-1.156,0.1-2.287,0.291-3.474,0.261
		C168.243,91.126,168.487,91.129,168.73,91.13z"/>
	<path style="fill:#FFB398;" d="M174.664,90.545c-1.035,0.197-2.122,0.222-3.19,0.314C172.543,90.767,173.627,90.743,174.664,90.545
		z"/>
</g>
<path style="fill:#EBE5DD;" d="M171.474,90.859c1.068-0.092,2.155-0.117,3.19-0.314c1.006-0.192,1.95-0.539,2.92-0.825
	c0.989-0.292,2.003-0.523,2.949-0.908c0.938-0.382,1.797-0.903,2.688-1.371c0.888-0.467,1.808-0.879,2.643-1.427
	c0.839-0.55,1.582-1.224,2.363-1.851c0.775-0.622,1.588-1.197,2.3-1.889c0.71-0.69,1.307-1.487,1.949-2.243
	c0.651-0.766,1.347-1.493,1.923-2.32c0.566-0.814,1.001-1.716,1.49-2.584c0.496-0.882,1.043-1.731,1.453-2.664
	c0.411-0.934,0.671-1.941,0.99-2.921c0.313-0.962,0.687-1.897,0.907-2.898c0.226-1.027,0.281-2.112,0.402-3.175
	c0.132-1.154,0.355-2.281,0.358-3.47h-32v30.72v0.4C169.187,91.15,170.318,90.959,171.474,90.859z"/>
<g>
	<path style="fill:#FFB398;" d="M296,90.72v0.4v0.32c-15.381,0.395-28.374-10.437-31.31-25.019
		c-0.082-0.387-0.083-0.799-0.151-1.191c-0.223-1.378-0.493-2.743-0.53-4.178C264,60.701,263.997,60.35,264,60h32c0,0,0-56-64-56
		s-64,56-64,56h32c0,0.243-0.004,0.487-0.01,0.73c-0.024,0.941-0.242,1.822-0.348,2.74c-0.122,1.064-0.176,2.146-0.402,3.175
		c-0.22,1.003-0.593,1.935-0.907,2.898c-0.32,0.981-0.578,1.985-0.99,2.921c-0.411,0.935-0.956,1.78-1.453,2.664
		c-0.489,0.869-0.922,1.769-1.49,2.584c-0.577,0.829-1.271,1.553-1.923,2.32c-0.643,0.757-1.238,1.55-1.949,2.243
		c-0.713,0.693-1.524,1.266-2.3,1.889c-0.782,0.628-1.522,1.299-2.363,1.851c-0.836,0.548-1.754,0.959-2.643,1.427
		c-0.892,0.469-1.748,0.989-2.688,1.371c-0.948,0.385-1.959,0.616-2.949,0.908c-0.971,0.287-1.913,0.633-2.92,0.825
		c-1.037,0.198-2.121,0.222-3.19,0.314c-0.918,0.079-1.804,0.272-2.744,0.271c-0.244,0-0.487-0.004-0.73-0.01v-0.4
		c-8.836,0-16,7.164-16,16c0,8.837,7.164,16,16,16h1.04c5.788,23.229,23.924,41.365,47.153,47.153
		c34.683,8.642,69.805-12.469,78.447-47.153H296c8.836,0,16-7.163,16-16C312,97.883,304.836,90.72,296,90.72z"/>
	<path style="fill:#FFB398;" d="M192.478,80.032c-0.643,0.755-1.239,1.552-1.949,2.243C191.24,81.582,191.834,80.789,192.478,80.032
		z"/>
	<path style="fill:#FFB398;" d="M177.584,89.72c-0.97,0.286-1.914,0.633-2.92,0.825C175.672,90.354,176.613,90.007,177.584,89.72z"
		/>
	<path style="fill:#FFB398;" d="M188.228,84.164c-0.781,0.627-1.524,1.3-2.363,1.851C186.706,85.463,187.446,84.792,188.228,84.164z
		"/>
	<path style="fill:#FFB398;" d="M190.528,82.274c-0.712,0.692-1.525,1.267-2.3,1.889C189.004,83.541,189.815,82.968,190.528,82.274z
		"/>
	<path style="fill:#FFB398;" d="M183.222,87.441c-0.891,0.468-1.75,0.989-2.688,1.371C181.474,88.43,182.33,87.91,183.222,87.441z"
		/>
</g>
<path style="fill:#EC8600;" d="M416,260l19.04-19.04c3.184-3.18,7.5-4.964,12-4.96l0,0c9.367,0,16.96,7.593,16.96,16.96V324h16
	c0,26.51-21.49,48-48,48l0,0L416,260z"/>
<g>
	<path style="fill:#FFB398;" d="M185.865,86.014c-0.834,0.547-1.755,0.96-2.643,1.427C184.111,86.974,185.028,86.563,185.865,86.014
		z"/>
	<path style="fill:#FFB398;" d="M180.534,88.812c-0.946,0.385-1.96,0.617-2.949,0.908C178.575,89.428,179.586,89.197,180.534,88.812
		z"/>
</g>
<path style="fill:#FF9811;" d="M288,340v-16c0-44.183,35.817-80,80-80l0,0c44.183,0,80,35.817,80,80v16H288z"/>
<path style="fill:#EBE5DD;" d="M208,140c0-13.255,10.745-24,24-24l0,0c13.255,0,24,10.745,24,24H208z"/>
<g>
	<path style="fill:#29485A;" d="M64,444v-32H32c-17.673,0-32,14.327-32,32v32h80v-32H64z"/>
	<path style="fill:#29485A;" d="M160,412h-32v32h-16v32h80v-32C192,426.327,177.673,412,160,412z"/>
</g>
<path style="fill:#FFB398;" d="M400,300L400,300c0,17.187,13.933,31.12,31.12,31.12H432v-0.4c8.837,0,16,7.163,16,16l0,0
	c0,8.837-7.163,16-16,16h-1.36c-8.642,34.683-43.764,55.794-78.447,47.153c-23.228-5.788-41.365-23.924-47.153-47.153H304
	c-8.837,0-16-7.163-16-16l0,0c0-8.837,7.163-16,16-16v0.4h0.72c17.177-0.087,31.105-13.943,31.28-31.12l0,0v32l0,0
	c17.673,0,32-14.327,32-32l0,0v32l0,0C385.673,332,400,317.673,400,300z"/>
<polygon style="fill:#F40E34;" points="128,444 128,412 64,412 64,444 80,444 80,476 112,476 112,444 "/>
<path style="fill:#29485A;" d="M328,444v-32h-24c-17.673,0-32,14.327-32,32v32h72l24-48L328,444z"/>
<g>
	<polygon style="fill:#F40E34;" points="368,428 408,444 408,412 328,412 328,444 	"/>
	<polygon style="fill:#F40E34;" points="344,476 392,476 368,428 	"/>
</g>
<path style="fill:#29485A;" d="M432,412h-24v32l-40-16l24,48h72v-32C464,426.327,449.673,412,432,412z"/>
<polygon style="fill:#F40E34;" points="200,212 216,196 232,212 248,196 264,212 280,212 280,172 184,172 184,212 "/>
<g>
	<path style="fill:#29485A;" d="M184,172h-16c-17.673,0-32,14.327-32,32v24h48v-16V172z"/>
	<path style="fill:#29485A;" d="M296,172h-16v40v16h48v-24C328,186.327,313.673,172,296,172z"/>
</g>
<polygon style="fill:#EBE5DD;" points="264,212 248,196 232,212 216,196 200,212 184,212 184,228 280,228 280,212 "/>
<g>
	<rect x="312" y="316" style="fill:#FFFFFF;" width="16" height="16"/>
	<path style="fill:#FFFFFF;" d="M328,300h-16c0-22.055,17.945-40,40-40v16C338.766,276,328,286.766,328,300z"/>
	<rect x="40" y="316" style="fill:#FFFFFF;" width="16" height="16"/>
	<path style="fill:#FFFFFF;" d="M56,300H40c0-22.055,17.945-40,40-40v16C66.766,276,56,286.766,56,300z"/>
	<rect x="184" y="76" style="fill:#FFFFFF;" width="16" height="16"/>
	<path style="fill:#FFFFFF;" d="M200,60h-16c0-22.055,17.945-40,40-40v16C210.766,36,200,46.766,200,60z"/>
</g>
<g>
</g>
<g>
</g>
<g>
</g>
<g>
</g>
<g>
</g>
<g>
</g>
<g>
</g>
<g>
</g>
<g>
</g>
<g>
</g>
<g>
</g>
<g>
</g>
<g>
</g>
<g>
</g>
<g>
</g>
</svg>
